<?xml version="1.0" encoding="UTF-8"?>
<svg version="1.1" xmlns="http://www.w3.org/2000/svg" width="174" height="184">
<path d="M0 0 C57.42 0 114.84 0 174 0 C174 60.72 174 121.44 174 184 C116.58 184 59.16 184 0 184 C0 123.28 0 62.56 0 0 Z " fill="#FEFEFE" transform="translate(0,0)"/>
<path d="M0 0 C9.24 0 18.48 0 28 0 C28 39.93 28 79.86 28 121 C18.76 121 9.52 121 0 121 C0 81.07 0 41.14 0 0 Z " fill="#2F5694" transform="translate(74,39)"/>
<path d="M0 0 C9.24 0 18.48 0 28 0 C28 39.93 28 79.86 28 121 C18.76 121 9.52 121 0 121 C0 81.07 0 41.14 0 0 Z " fill="#B01345" transform="translate(39,39)"/>
<path d="M0 0 C3.00604516 14.49787405 6.00529093 28.99714077 8.99648285 43.49808693 C10.38555112 50.23132827 11.7768276 56.96409907 13.17333984 63.69580078 C14.52089493 70.19154239 15.86224703 76.68854475 17.19981384 83.18635178 C17.71128279 85.6658922 18.22483367 88.14500411 18.74049377 90.6236763 C19.46205988 94.09387396 20.17622687 97.56551767 20.88867188 101.03759766 C21.21127235 102.57616425 21.21127235 102.57616425 21.54039001 104.14581299 C22.49519771 108.83600488 23.27456984 113.18340745 23 118 C19.62772763 118.84464056 16.25180079 119.67366647 12.875 120.5 C11.92367187 120.73847656 10.97234375 120.97695312 9.9921875 121.22265625 C8.6 121.56103516 8.6 121.56103516 7.1796875 121.90625 C6.33132324 122.11572266 5.48295898 122.32519531 4.60888672 122.54101562 C1.69675309 123.05335057 -1.0489669 123.0753776 -4 123 C-9.72234704 95.67050706 -15.38109171 68.32855214 -20.88024902 40.95324707 C-21.41787849 38.27688048 -21.95726367 35.60087731 -22.49816895 32.9251709 C-23.25735937 29.1684942 -24.00996288 25.41051568 -24.76171875 21.65234375 C-24.98931381 20.52865891 -25.21690887 19.40497406 -25.45140076 18.24723816 C-25.65652786 17.21552994 -25.86165497 16.18382172 -26.07299805 15.12084961 C-26.2529985 14.22369736 -26.43299896 13.3265451 -26.61845398 12.40220642 C-27 10 -27 10 -27 6 C-15.28125 3.0703125 -15.28125 3.0703125 -13.1484375 2.54003906 C-11.69345372 2.17430905 -10.24035074 1.80102826 -8.7890625 1.42089844 C-5.77824259 0.63924327 -3.12490899 0 0 0 Z " fill="#EAD8B6" transform="translate(133,36)"/>
</svg>
