<?xml version="1.0" encoding="utf-8"?>
<!-- Generator: Adobe Illustrator 15.0.0, SVG Export Plug-In  -->
<!DOCTYPE svg PUBLIC "-//W3C//DTD SVG 1.1//EN" "http://www.w3.org/Graphics/SVG/1.1/DTD/svg11.dtd" [
	<!ENTITY ns_flows "http://ns.adobe.com/Flows/1.0/">
]>
<svg version="1.1"
	 xmlns="http://www.w3.org/2000/svg" xmlns:xlink="http://www.w3.org/1999/xlink" xmlns:a="http://ns.adobe.com/AdobeSVGViewerExtensions/3.0/"
	 x="0px" y="0px" width="62px" height="107px" viewBox="0 0 62 107" enable-background="new 0 0 62 107" xml:space="preserve">
<defs>
</defs>
<path fill="#005091" d="M30.807,106.53C16.053,101.595,0,88.16,0,70.938l0.002-36.722l0.001-0.357h62.254l0.001,0.357l0.002,36.722
	C62.261,88.158,48.876,100.317,30.807,106.53z"/>
<path fill="#B5123E" d="M31.046,105.691c17.699-6.216,30.5-18.127,30.5-34.753l-0.002-36.364H31.052L31.046,105.691z"/>
<path fill="#005091" d="M35.865,43.331l1.625-0.616l1.279,3.141l1.51-0.58c0,0,2.317,5.9,2.483,6.534
	c0.445,0.408,1.376,4.14,1.376,4.14l0.322-0.235c0.005,0,0.39,1.153,0.719,2.405c0.329-1.252,0.714-2.405,0.719-2.405l0.322,0.235
	c0,0,0.931-3.732,1.376-4.14c0.166-0.634,2.484-6.534,2.484-6.534l1.51,0.58l1.278-3.141l1.625,0.616l1.775,0.689l-1.279,3.141
	l1.51,0.58c0,0-2.225,5.935-2.526,6.517c0.058,0.601-1.748,3.998-1.748,3.998l0.396,0.041c0.006,0.005-1.289,2.968-2.233,4.221
	c0.151-0.01,0.419-0.013,0.536,0.007c-0.356,1.122-1.352,3.193-2.065,4.135c0.007,0.021,0.383-0.075,0.534-0.017
	C49.255,67,49.2,67.344,48.993,67.791c0.038,0.056,0.065,0.075,0.095,0.126c0.54,1.403,1.236,3.505,1.273,4.874
	c0.105-0.115,0.264-0.478,0.377-0.571c0.777,2.24,1.159,3.806,1.176,3.841c0.096,0.258,0.181,1.151,0.1,1.617
	c-0.095,0.538-0.607,1.505-0.581,1.662c-0.045,0.045,2.981,7.905,2.981,7.905l-1.323,0.537l-1.556,0.626l-3.059-7.884
	c-1.304-0.409-1.862-0.895-1.938-1.02c-0.244-0.405-0.628-0.845-0.729-1.1c-0.006-0.023-0.221-0.438-0.595-1.25
	c-0.424,0.864-0.663,1.225-0.67,1.25c-0.101,0.255-0.486,0.694-0.729,1.1c-0.076,0.125-0.634,0.611-1.938,1.02l-3.058,7.884
	l-1.556-0.626l-1.323-0.537c0,0,3.027-7.86,2.981-7.905c0.027-0.157-0.486-1.124-0.58-1.662c-0.082-0.466,0.004-1.359,0.1-1.617
	c0.017-0.035,0.325-1.235,1.102-3.474c0.114,0.093,0.268,0.251,0.373,0.366c0.037-1.369,0.625-3.228,1.165-4.631
	c-0.002-0.045,0.381,0.23,0.433,0.299c-0.042-0.291-0.004-0.677,0.084-1.115c-0.017-0.349-0.104-0.835-0.1-0.849
	c-0.714-0.942-1.709-3.013-2.066-4.135c0.117-0.02,0.385-0.017,0.536-0.007c-0.945-1.253-2.239-4.216-2.233-4.221l0.396-0.041
	c0,0-1.805-3.397-1.748-3.998c-0.301-0.583-2.526-6.517-2.526-6.517l1.509-0.58L34.09,44.02L35.865,43.331z"/>
<path fill="#005091" d="M12.701,31.757l-1.529-4.128l-3.118-8.208C5.791,13.464,3.514,7.466,3.421,7.276L3.218,6.684
	c0,0,0.092-0.276,0.295-0.351c0.147-0.092,1.18,0.461,2.2,0.784C6.425,7.343,7.28,7.723,8.302,7.952
	c1.08,0.252,1.525,0.448,2.276,1.481c0.345,0.547,0.341,1.411,0.321,1.994c0.985-1.804,2.405-2.971,4.677-2.631
	c2.692,0.336,3.785,3.971,2.239,5.448c-0.475,0.565-1.54,1.573-0.494,2.174c0.217,0.087,0.476,0.026,0.476,0.026
	s-0.106,0.563-0.283,0.817c-0.506,0.741-2.409,1.576-3.4,0.157c-0.42-0.657-0.494-1.03-0.323-1.764l0.157-0.642
	c-0.016-0.396-0.531-0.644-1.05-0.49c-0.196,0.069-0.6,0.383-0.671,1.542c-0.21,2.874,1.552,6.647,5.451,5.608
	c1.963-0.523,2.486-1.268,2.557-2.354c-0.861-0.291-1.481-1.104-1.481-2.063c0-1.202,0.825-2.177,2.028-2.177
	c1.202,0,2.177,0.975,2.177,2.177c0,0.674-0.307,1.276-0.787,1.675c0.454,1.043,1.031,1.637,3.124,1.452
	c4.019-0.357,4.505-4.526,3.325-7.155c-0.471-1.083-0.968-1.226-1.169-1.219c-0.535,0.038-0.928,0.444-0.808,0.819l0.367,0.549
	c0.412,0.632,0.47,1.007,0.299,1.769c-0.446,1.672-2.519,1.539-3.248,1.015c-0.31-0.232-0.553-0.719-0.553-0.719
	s0.381-0.015,0.446-0.138c0.782-0.929-0.582-1.51-1.222-1.883c-1.943-0.874-2.159-4.649,0.26-5.879
	c1.93-1.048,3.302-0.57,4.706,0.445c0.144,0.104,0.27,0.259,0.364,0.364c-0.082-0.189-0.11-0.22-0.206-0.411
	c-0.098-0.21-0.212-0.451-0.23-0.718c-0.132-0.818,0.013-1.675,0.368-2.315c0.354-0.611,0.856-1.11,1.292-1.661
	c0.472-0.597,1.006-1.331,1.488-2.528c0.075-0.133,0.235-0.584,0.352-0.652C31.164,0.031,31.209,0.011,31.299,0
	c0.09,0.011,0.146,0.031,0.184,0.063c0.117,0.067,0.276,0.519,0.352,0.652c0.481,1.197,1.016,1.931,1.488,2.528
	c0.435,0.551,0.937,1.049,1.292,1.661c0.354,0.641,0.5,1.497,0.368,2.315c-0.019,0.267-0.133,0.508-0.231,0.718
	c-0.095,0.19-0.124,0.221-0.206,0.411c0.094-0.104,0.22-0.26,0.364-0.364c1.404-1.015,2.776-1.494,4.706-0.445
	c2.419,1.23,2.203,5.006,0.26,5.879c-0.64,0.373-2.004,0.954-1.222,1.883c0.065,0.123,0.446,0.138,0.446,0.138
	s-0.243,0.487-0.553,0.719c-0.729,0.524-2.802,0.657-3.249-1.015c-0.17-0.761-0.112-1.136,0.3-1.769l0.367-0.549
	c0.12-0.375-0.273-0.781-0.809-0.819c-0.201-0.007-0.697,0.136-1.168,1.219c-1.18,2.629-0.694,6.798,3.325,7.155
	c2.092,0.186,2.669-0.409,3.124-1.452c-0.48-0.399-0.787-1.001-0.787-1.675c0-1.202,0.975-2.177,2.177-2.177
	c1.203,0,2.028,0.975,2.028,2.177c0,0.959-0.62,1.773-1.481,2.063c0.071,1.086,0.593,1.832,2.557,2.354
	c3.898,1.039,5.661-2.734,5.451-5.608c-0.071-1.159-0.476-1.473-0.671-1.542c-0.519-0.153-1.034,0.095-1.05,0.49l0.157,0.642
	c0.17,0.734,0.097,1.107-0.323,1.764c-0.991,1.419-2.894,0.584-3.4-0.157c-0.176-0.253-0.283-0.817-0.283-0.817
	s0.259,0.061,0.476-0.026c1.046-0.601-0.019-1.608-0.494-2.174c-1.545-1.478-0.452-5.112,2.24-5.448
	c2.272-0.34,3.691,0.827,4.677,2.631c-0.021-0.583-0.024-1.447,0.321-1.994c0.751-1.033,1.197-1.229,2.276-1.481
	c1.021-0.229,1.877-0.609,2.589-0.834c1.02-0.323,2.052-0.876,2.2-0.784c0.203,0.074,0.295,0.351,0.295,0.351l-0.203,0.592
	c-0.093,0.189-2.371,6.188-4.633,12.145l-3.118,8.208l-1.53,4.128H12.701z"/>
<path fill="#ECD9BB" d="M13.114,31.046C13.066,30.993,4.15,7.428,3.965,7.049c0.591,0.183,2.09,1.027,4.195,1.5
	c0.695,0.163,1.157,0.197,1.909,1.23c0.404,0.641,0.326,1.636,0.212,2.203c0.091,0.282,0.585,0.494,0.837,0.171
	c0.634-1.101,1.551-3.171,4.318-2.757c2.263,0.276,3.055,3.359,1.884,4.433c-0.427,0.514-2.044,2.101-0.356,3.071
	c-0.406,0.595-1.78,1.063-2.41,0.161c-0.463-0.724-0.343-0.833-0.067-1.991c0.055-1.139-1.238-1.287-1.796-1.122
	c-0.521,0.169-1.004,0.771-1.083,2.053c-0.216,2.951,1.815,7.442,6.334,6.239c2.539-0.677,2.789-1.918,2.811-3.439
	c-0.83-0.046-1.489-0.734-1.489-1.576c0-0.872,0.707-1.579,1.579-1.579c0.872,0,1.579,0.707,1.579,1.579
	c0,0.628-0.367,1.171-0.899,1.425c0.035,0.147,0.125,0.37,0.183,0.517c0.524,1.205,1.296,2.054,3.646,1.845
	c4.658-0.414,5.03-5.33,3.819-8.028c-0.513-1.178-1.173-1.578-1.72-1.56c-0.581,0.036-1.746,0.617-1.304,1.668
	c0.655,0.994,0.805,1.056,0.618,1.895c-0.283,1.063-1.734,1.093-2.319,0.673c1.254-1.489-0.808-2.426-1.385-2.764
	c-1.468-0.608-1.778-3.777,0.254-4.81c2.458-1.336,4.029,0.296,5.001,1.114c0.347,0.217,0.739-0.151,0.728-0.447
	c-0.245-0.401-0.792-0.942-0.815-1.579c-0.117-0.701,0.008-1.419,0.294-1.936c0.581-1.001,1.752-1.753,2.785-4.194
	c1.032,2.44,2.199,3.192,2.779,4.194c0.286,0.517,0.411,1.235,0.294,1.936c-0.024,0.637-0.571,1.178-0.815,1.579
	c-0.011,0.296,0.381,0.664,0.728,0.447c0.972-0.817,2.542-2.45,5.001-1.114c2.032,1.033,1.722,4.202,0.254,4.81
	c-0.577,0.337-2.639,1.275-1.385,2.764c-0.585,0.42-2.036,0.39-2.319-0.673c-0.188-0.838-0.037-0.9,0.618-1.895
	c0.441-1.051-0.724-1.632-1.304-1.668c-0.547-0.019-1.207,0.381-1.72,1.56c-1.211,2.699-0.839,7.614,3.819,8.028
	c2.349,0.209,3.121-0.641,3.646-1.845c0.058-0.147,0.148-0.37,0.183-0.517c-0.532-0.254-0.899-0.797-0.899-1.425
	c0-0.872,0.707-1.579,1.579-1.579s1.579,0.707,1.579,1.579c0,0.842-0.659,1.53-1.49,1.576c0.022,1.521,0.272,2.763,2.811,3.439
	c4.52,1.204,6.55-3.288,6.334-6.239c-0.079-1.282-0.563-1.884-1.083-2.053c-0.558-0.165-1.852-0.017-1.796,1.122
	c0.276,1.158,0.396,1.268-0.067,1.991c-0.629,0.902-2.003,0.435-2.409-0.161c1.688-0.97,0.07-2.557-0.356-3.071
	c-1.171-1.074-0.378-4.157,1.884-4.433c2.767-0.415,3.684,1.656,4.318,2.757c0.252,0.322,0.746,0.111,0.837-0.171
	c-0.114-0.567-0.193-1.562,0.212-2.203c0.752-1.033,1.214-1.067,1.909-1.23c2.105-0.473,3.604-1.317,4.195-1.5
	c-0.185,0.378-9.101,23.944-9.149,23.997H13.114z"/>
<path fill="#ECD9BB" d="M26.624,46.202c0.602-1.959,0.124-3.705-0.017-3.764c-0.164-0.003-1.746,1.027-2.547,2.78
	c-0.019-0.007-3.243,8.493-3.243,8.493l2.564,0.984L26.624,46.202z"/>
<path fill="#005091" d="M26.324,52.001c-0.349,1.108-1.423,1.473-2.041,1.307c0.018-0.092,1.299-3.355,1.475-3.859
	C25.894,50.091,26.719,50.967,26.324,52.001z"/>
<path fill="#ECD9BB" d="M28.479,48.746c-0.48-0.619-1.109-0.723-1.372-0.116c-0.3,0.782,2.421,1.975,1.314,4.624
	c-0.404,1.054-2.004,1.84-3.019,1.791c-0.598-0.019-1.182-0.133-1.562-0.267c0,0,0.418-1.077,0.418-1.088
	c0.868,0.224,2.042-0.318,2.443-1.523c0.611-1.766-1.075-2.363-0.577-3.67c0.108-0.373,0.441-0.844,0.874-1.037
	c0.787-0.265,1.573,0.113,2.081,0.804C29.066,48.258,28.478,48.772,28.479,48.746z"/>
<path fill="#005091" d="M20.407,49.729c-0.483,1.058,0.072,2.047,0.642,2.337c0.048-0.081,1.28-3.362,1.486-3.855
	C21.995,48.579,20.805,48.697,20.407,49.729z"/>
<path fill="#ECD9BB" d="M20.983,45.869c0.771-0.139,1.309,0.205,1.097,0.832c-0.3,0.782-3.121-0.152-4.07,2.557
	c-0.404,1.054,0.258,2.708,1.045,3.351c0.457,0.386,0.964,0.686,1.335,0.84c-0.006,0.006,0.42-1.085,0.417-1.088
	c-0.795-0.415-1.302-1.597-0.792-2.761c0.727-1.721,2.379-1.037,2.885-2.341c0.169-0.35,0.237-0.923,0.044-1.355
	c-0.407-0.724-1.245-0.968-2.084-0.795C20.874,45.113,20.967,45.889,20.983,45.869z"/>
<polygon fill="#ECD9BB" points="19.196,58.008 12.231,76.061 14.792,77.044 21.757,58.992 "/>
<path fill="#ECD9BB" d="M11.375,78.279l-1.865,4.843c0.282,0.091,2.343,0.916,2.571,0.957l1.854-4.817L11.375,78.279z"/>
<path fill="#ECD9BB" d="M11.371,76.248l3.829,1.47c0.247,0.095-0.268,1.434-0.515,1.339l-3.83-1.47
	C10.609,77.492,11.124,76.153,11.371,76.248z"/>
<path fill="#ECD9BB" d="M23.054,55.191l-2.389-0.917c-0.561-0.215-1.19,0.065-1.406,0.626l-0.467,1.216
	c-0.215,0.561,0.065,1.19,0.626,1.406l2.388,0.917c0.561,0.215,1.191-0.065,1.406-0.626l0.467-1.216
	C23.895,56.037,23.615,55.407,23.054,55.191z"/>
<path fill="#ECD9BB" d="M11.808,84.51l-2.388-0.917c-0.562-0.215-1.191,0.065-1.406,0.626l-0.467,1.216
	c-0.215,0.561,0.065,1.191,0.626,1.406l2.388,0.917c0.561,0.215,1.191-0.065,1.406-0.626l0.467-1.216
	C12.649,85.355,12.369,84.726,11.808,84.51z"/>
<path fill="#ECD9BB" d="M6.877,46.202c-0.602-1.959-0.125-3.705,0.016-3.764c0.164-0.003,1.746,1.027,2.547,2.78
	c0.019-0.007,3.243,8.493,3.243,8.493l-2.564,0.984L6.877,46.202z"/>
<path fill="#005091" d="M7.177,52.001c0.349,1.108,1.423,1.473,2.041,1.307c-0.018-0.092-1.299-3.355-1.475-3.859
	C7.607,50.091,6.782,50.967,7.177,52.001z"/>
<path fill="#ECD9BB" d="M5.022,48.746c0.48-0.619,1.109-0.723,1.371-0.116c0.3,0.782-2.421,1.975-1.314,4.624
	c0.405,1.054,2.004,1.84,3.019,1.791c0.598-0.019,1.183-0.133,1.562-0.267c0,0-0.418-1.077-0.418-1.088
	c-0.868,0.224-2.042-0.318-2.443-1.523c-0.611-1.766,1.075-2.363,0.577-3.67c-0.108-0.373-0.441-0.844-0.874-1.037
	c-0.787-0.265-1.573,0.113-2.081,0.804C4.435,48.258,5.023,48.772,5.022,48.746z"/>
<path fill="#005091" d="M13.095,49.729c0.482,1.058-0.072,2.047-0.642,2.337c-0.048-0.081-1.28-3.362-1.486-3.855
	C11.507,48.579,12.696,48.697,13.095,49.729z"/>
<path fill="#ECD9BB" d="M12.518,45.869c-0.771-0.139-1.308,0.205-1.097,0.832c0.3,0.782,3.121-0.152,4.07,2.557
	c0.404,1.054-0.258,2.708-1.045,3.351c-0.457,0.386-0.964,0.686-1.335,0.84c0.022,0.022-0.429-1.078-0.417-1.088
	c0.795-0.415,1.302-1.597,0.792-2.761c-0.727-1.721-2.379-1.037-2.885-2.341c-0.169-0.35-0.237-0.923-0.044-1.355
	c0.407-0.724,1.245-0.968,2.084-0.795C12.627,45.113,12.534,45.889,12.518,45.869z"/>
<path fill="#ECD9BB" d="M18.506,68.864l2.757,7.217l-2.561,0.983l-1.667-4.395L18.506,68.864z M14.305,58.008l2.178,5.647
	l-1.471,3.806l-3.268-8.47L14.305,58.008z"/>
<path fill="#ECD9BB" d="M22.119,78.284l1.85,4.825c-0.282,0.091-2.342,0.916-2.571,0.957l-1.84-4.799L22.119,78.284z"/>
<path fill="#ECD9BB" d="M22.075,76.259l-3.829,1.47c-0.247,0.095,0.268,1.434,0.515,1.339l3.83-1.47
	C22.836,77.503,22.321,76.165,22.075,76.259z"/>
<path fill="#ECD9BB" d="M10.403,55.206l2.389-0.917c0.561-0.215,1.19,0.065,1.406,0.626l0.467,1.216
	c0.215,0.561-0.065,1.19-0.626,1.406l-2.388,0.917c-0.561,0.215-1.19-0.065-1.406-0.626l-0.467-1.217
	C9.562,56.051,9.842,55.421,10.403,55.206z"/>
<path fill="#ECD9BB" d="M21.693,84.51l2.389-0.917c0.561-0.215,1.19,0.065,1.406,0.626l0.467,1.216
	c0.216,0.561-0.065,1.191-0.626,1.406l-2.388,0.917c-0.561,0.215-1.19-0.065-1.406-0.626l-0.467-1.216
	C20.852,85.355,21.132,84.726,21.693,84.51z"/>
<path fill="#ECD9BB" d="M37.475,51.259l-2.772-7.016l1.038-0.387l2.111,5.322C37.729,49.54,37.563,50.604,37.475,51.259z"/>
<polygon fill="#ECD9BB" points="49.004,80.699 50.523,81.355 51.092,79.833 53.844,87.041 51.833,87.834 "/>
<path fill="#ECD9BB" d="M41.04,52.597c0.047,0.645-0.226,1.815-0.537,2.802c-1.213-0.614-2.273-1.421-2.363-1.877
	c-0.437-0.971-0.116-2.787,0.252-3.772C39.23,50.158,40.651,51.421,41.04,52.597z"/>
<path fill="#ECD9BB" d="M40.431,56.01c0.325,0.502,1.333,3.174,1.367,3.45c-0.437-0.202-2.357-0.805-2.891-1.334
	c-0.818-0.851-1.753-2.917-2.003-3.621C37.101,54.718,39.958,55.214,40.431,56.01z"/>
<path fill="#ECD9BB" d="M42.054,60.285c0.239,0.371,0.832,1.923,1.14,2.823c-0.018,0.066-0.048,0.388-0.094,0.557
	c-0.723-0.275-2.142-0.84-2.569-1.264c-0.818-0.851-1.807-3.015-2.057-3.718C38.669,58.896,41.582,59.489,42.054,60.285z"/>
<path fill="#ECD9BB" d="M40.095,62.907c0.153,0.167,1.617,0.451,2.607,0.988c-0.016,0.138-0.564,1.688-0.808,2.483
	C41.127,65.429,40.326,63.558,40.095,62.907z"/>
<path fill="#ECD9BB" d="M48.149,76.293c-0.313-0.145-1.465-0.519-2.236-0.902c0-0.043,0.031-0.186,0.031-0.236
	c-0.056-0.012-0.298-0.019-0.434-0.031c0.471-0.552,0.918-1.417,1.307-2.286C47.141,73.341,48.115,76.018,48.149,76.293z"/>
<path fill="#ECD9BB" d="M48.536,77.155c0.325,0.502,1.298,3.179,1.333,3.455c-0.436-0.202-2.322-0.809-2.856-1.338
	c-0.561-0.583-1.176-1.737-1.588-2.632c0.051-0.198,0.328-0.762,0.334-0.802C46.632,76.141,48.184,76.562,48.536,77.155z"/>
<path fill="#ECD9BB" d="M35.512,47.697l-0.991,0.382l2.238,5.886c0.147,0.068,1.064,0.238,1.317,0.402
	C37.905,53.878,35.512,47.697,35.512,47.697z"/>
<path fill="#ECD9BB" d="M39.959,50.342l-2.775-7.051l-1.03,0.407l2.133,5.35C38.62,49.234,39.455,49.914,39.959,50.342z"/>
<path fill="#ECD9BB" d="M40.928,55.819c0.095,0.591,1.136,3.178,1.294,3.405c0.189-0.441,1.211-2.102,1.254-2.852
	c0.038-1.179-0.65-3.341-0.935-4.031C42.539,52.631,40.747,54.912,40.928,55.819z"/>
<path fill="#ECD9BB" d="M42.583,60.082c-0.182-0.908,1.585-3.297,1.588-3.586c0.185,0.446,0.547,1.552,0.771,2.597
	c-0.101,0.459-0.178,0.896-0.209,1.252c-0.105-0.108-0.302-0.29-0.402-0.354c-0.299,0.659-0.666,1.551-0.928,2.415
	C43.051,61.538,42.64,60.438,42.583,60.082z"/>
<path fill="#ECD9BB" d="M47.215,72.284c0.095,0.591,1.392,3.544,1.55,3.772c0.189-0.442,1.06-2.544,1.103-3.294
	c0.039-1.18-0.81-3.465-1.095-4.154C48.77,68.897,47.033,71.376,47.215,72.284z"/>
<path fill="#ECD9BB" d="M49.055,76.956c0.095,0.591,1.163,3.231,1.321,3.459c0.189-0.442,1.184-2.155,1.227-2.906
	c0.039-1.179-0.666-3.592-0.95-4.282C50.649,73.516,48.873,76.048,49.055,76.956z"/>
<path fill="#ECD9BB" d="M39.021,46.35l0.993-0.379l2.276,5.872c-0.064,0.15-0.631,0.89-0.71,1.18
	C41.379,52.545,39.021,46.35,39.021,46.35z"/>
<path fill="#ECD9BB" d="M52.883,51.259l2.773-7.016l-1.038-0.387l-2.111,5.322C52.628,49.54,52.794,50.604,52.883,51.259z"/>
<polygon fill="#ECD9BB" points="41.354,80.699 39.835,81.355 39.266,79.833 36.513,87.041 38.524,87.834 "/>
<path fill="#ECD9BB" d="M49.317,52.597c-0.047,0.645,0.227,1.815,0.537,2.802c1.214-0.614,2.273-1.421,2.363-1.877
	c0.438-0.971,0.117-2.787-0.252-3.772C51.127,50.158,49.707,51.421,49.317,52.597z"/>
<path fill="#ECD9BB" d="M49.927,56.01c-0.325,0.502-1.333,3.174-1.367,3.45c0.436-0.202,2.356-0.805,2.89-1.334
	c0.818-0.851,1.753-2.917,2.003-3.621C53.257,54.718,50.399,55.214,49.927,56.01z"/>
<path fill="#ECD9BB" d="M48.304,60.285c-0.325,0.502-1.298,3.179-1.333,3.455c0.437-0.202,2.322-0.81,2.856-1.338
	c0.817-0.851,1.807-3.015,2.057-3.718C51.688,58.896,48.776,59.489,48.304,60.285z"/>
<path fill="#ECD9BB" d="M46.756,64.472c-0.325,0.502-1.298,3.179-1.333,3.455c0.437-0.202,2.322-0.81,2.856-1.338
	c0.818-0.851,1.734-2.978,1.983-3.681C50.067,63.12,47.228,63.676,46.756,64.472z"/>
<path fill="#ECD9BB" d="M45.097,68.772c-0.325,0.502-1.227,2.99-1.261,3.266c0.437-0.202,2.592-0.867,3.126-1.396
	c0.818-0.85,1.6-2.879,1.849-3.582C48.616,67.273,45.569,67.977,45.097,68.772z"/>
<path fill="#ECD9BB" d="M43.541,72.838c-0.325,0.502-1.298,3.179-1.333,3.455c0.437-0.202,2.322-0.81,2.856-1.338
	c0.818-0.851,1.607-2.96,1.857-3.663C46.726,71.504,44.014,72.042,43.541,72.838z"/>
<path fill="#ECD9BB" d="M41.822,77.155c-0.324,0.502-1.298,3.179-1.333,3.455c0.437-0.202,2.322-0.809,2.856-1.338
	c0.818-0.851,1.753-2.917,2.003-3.621C45.152,75.863,42.294,76.359,41.822,77.155z"/>
<path fill="#ECD9BB" d="M54.846,47.697l0.991,0.382l-2.238,5.886c-0.147,0.068-1.064,0.238-1.316,0.402
	C52.453,53.878,54.846,47.697,54.846,47.697z"/>
<path fill="#ECD9BB" d="M50.398,50.342l2.775-7.051l1.03,0.407l-2.133,5.35C51.738,49.234,50.902,49.914,50.398,50.342z"/>
<path fill="#ECD9BB" d="M49.429,55.819c-0.095,0.591-1.136,3.178-1.294,3.405c-0.189-0.441-1.211-2.102-1.254-2.852
	c-0.039-1.179,0.649-3.341,0.935-4.031C47.819,52.631,49.611,54.912,49.429,55.819z"/>
<path fill="#ECD9BB" d="M47.774,60.082c-0.095,0.591-1.163,3.231-1.321,3.459c-0.189-0.442-1.184-2.155-1.227-2.906
	c-0.039-1.179,0.674-3.45,0.959-4.14C46.189,56.785,47.956,59.174,47.774,60.082z"/>
<path fill="#ECD9BB" d="M46.124,64.229c-0.095,0.59-1.163,3.231-1.321,3.459c-0.189-0.442-1.298-2.371-1.341-3.121
	c-0.038-1.179,0.818-3.158,1.103-3.848C44.567,61.009,46.305,63.321,46.124,64.229z"/>
<path fill="#ECD9BB" d="M44.478,68.535c-0.095,0.591-1.089,3.043-1.248,3.271c-0.189-0.441-1.184-2.155-1.227-2.906
	c-0.039-1.179,0.649-3.341,0.935-4.031C42.941,65.158,44.66,67.627,44.478,68.535z"/>
<path fill="#ECD9BB" d="M42.914,72.598c-0.095,0.59-1.163,3.231-1.321,3.459c-0.189-0.442-1.184-2.156-1.227-2.906
	c-0.039-1.18,0.649-3.341,0.935-4.031C41.303,69.409,43.096,71.69,42.914,72.598z"/>
<path fill="#ECD9BB" d="M41.303,76.956c-0.095,0.591-1.163,3.231-1.321,3.459c-0.189-0.442-1.184-2.155-1.227-2.906
	c-0.039-1.179,0.649-3.341,0.935-4.031C39.692,73.768,41.485,76.048,41.303,76.956z"/>
<path fill="#ECD9BB" d="M51.337,46.35l-0.993-0.379l-2.276,5.872c0.064,0.15,0.631,0.89,0.709,1.18
	C48.979,52.545,51.337,46.35,51.337,46.35z"/>
</svg>
